<svg width="73" height="70" viewBox="0 0 73 70" fill="none" xmlns="http://www.w3.org/2000/svg">
<path d="M52.761 0.498001H52.589C49.3386 0.51376 46.1435 1.33932 43.2923 2.90004C40.4411 4.46077 38.0238 6.70746 36.259 9.437C34.4943 6.7076 32.0772 4.461 29.2262 2.90028C26.3752 1.33956 23.1802 0.513926 19.93 0.498001H19.758C14.6369 0.545698 9.74171 2.61287 6.13647 6.25014C2.53122 9.8874 0.507418 14.8007 0.505005 19.922C0.505005 26.282 3.29 35.307 8.722 42.732C19.07 56.879 36.259 69.26 36.259 69.26C36.259 69.26 53.449 56.879 63.797 42.732C69.229 35.306 72.014 26.282 72.014 19.922C72.0116 14.8007 69.9878 9.8874 66.3825 6.25014C62.7773 2.61287 57.8821 0.545698 52.761 0.498001ZM59.912 39.898C53.517 48.628 44.201 56.81 38.494 61.434C38.2925 61.5965 38.0492 61.6988 37.7921 61.729C37.535 61.7591 37.2746 61.716 37.0409 61.6046C36.8073 61.4931 36.6099 61.3179 36.4715 61.0991C36.3332 60.8803 36.2595 60.6269 36.259 60.368V25.01C36.2952 20.412 37.6885 15.9271 40.264 12.118C40.281 12.101 40.281 12.084 40.298 12.084C41.6238 10.0569 43.4158 8.37669 45.524 7.184C47.6805 5.96884 50.1137 5.32964 52.589 5.328H52.744C56.5944 5.35731 60.2769 6.90813 62.9883 9.64215C65.6996 12.3762 67.2198 16.0715 67.217 19.922C67.2 24.907 64.948 33.003 59.912 39.896V39.898Z" fill="url(#paint0_linear_3_8)"/>
<path d="M33.33 25.973H28.778C28.6314 25.9792 28.4928 26.0417 28.3912 26.1477C28.2896 26.2536 28.2329 26.3947 28.2329 26.5415C28.2329 26.6883 28.2896 26.8294 28.3912 26.9353C28.4928 27.0413 28.6314 27.1038 28.778 27.11H31.93L28.158 30.91C26.7643 29.7125 24.9612 29.1008 23.1265 29.2029C21.2918 29.305 19.5678 30.1131 18.3156 31.4579C17.0634 32.8026 16.3801 34.5798 16.4088 36.4171C16.4375 38.2544 17.176 40.0093 18.4697 41.3143C19.7634 42.6193 21.5118 43.3731 23.3488 43.4178C25.1857 43.4625 26.9688 42.7947 28.3244 41.5542C29.68 40.3138 30.5031 38.5969 30.6212 36.7631C30.7393 34.9294 30.1433 33.1211 28.958 31.717L32.758 27.941V31.091C32.7548 31.1677 32.7671 31.2442 32.7942 31.316C32.8214 31.3877 32.8627 31.4533 32.9158 31.5087C32.9689 31.5641 33.0327 31.6081 33.1033 31.6382C33.1738 31.6683 33.2498 31.6838 33.3265 31.6838C33.4032 31.6838 33.4792 31.6683 33.5498 31.6382C33.6203 31.6081 33.6841 31.5641 33.7372 31.5087C33.7903 31.4533 33.8317 31.3877 33.8588 31.316C33.8859 31.2442 33.8982 31.1677 33.895 31.091V26.542C33.8958 26.4674 33.8818 26.3934 33.8537 26.3242C33.8256 26.2551 33.7841 26.1922 33.7315 26.1393C33.679 26.0864 33.6164 26.0444 33.5475 26.0158C33.4785 25.9873 33.4046 25.9727 33.33 25.973ZM29.51 36.298C29.5114 37.6722 29.0362 39.0044 28.1653 40.0675C27.2945 41.1306 26.0819 41.8588 24.7343 42.128C23.3866 42.3972 21.9874 42.1906 20.7749 41.5436C19.5625 40.8967 18.612 39.8492 18.0854 38.5799C17.5588 37.3105 17.4886 35.8979 17.887 34.5826C18.2853 33.2674 19.1274 32.1309 20.2698 31.3671C21.4122 30.6032 22.7841 30.2591 24.1518 30.3935C25.5194 30.5279 26.7981 31.1324 27.77 32.104C28.323 32.6533 28.7615 33.3068 29.0602 34.0267C29.3588 34.7466 29.5117 35.5186 29.51 36.298Z" fill="white"/>
<path d="M38.554 43.744C38.6285 43.7444 38.7022 43.7298 38.771 43.7011C38.8397 43.6724 38.9019 43.6302 38.954 43.577L40.829 41.703L42.377 43.251C42.4293 43.3039 42.4916 43.3459 42.5603 43.3745C42.6289 43.4032 42.7026 43.418 42.777 43.418C42.8515 43.4184 42.9252 43.4038 42.9939 43.3751C43.0627 43.3464 43.1249 43.3042 43.177 43.251C43.2825 43.1446 43.3417 43.0008 43.3417 42.851C43.3417 42.7012 43.2825 42.5574 43.177 42.451L41.632 40.9L43.723 38.809C45.1136 39.993 46.9083 40.593 48.7314 40.4833C50.5544 40.3737 52.2644 39.5629 53.503 38.2209C54.7417 36.8788 55.4131 35.1095 55.3765 33.2835C55.34 31.4575 54.5983 29.7165 53.3069 28.4251C52.0155 27.1337 50.2745 26.3921 48.4485 26.3555C46.6225 26.3189 44.8532 26.9903 43.5111 28.229C42.1691 29.4677 41.3583 31.1776 41.2487 33.0006C41.139 34.8237 41.739 36.6184 42.923 38.009L40.829 40.097L39.281 38.549C39.2287 38.4961 39.1664 38.4541 39.0977 38.4255C39.0291 38.3968 38.9554 38.382 38.881 38.382C38.8065 38.3816 38.7328 38.3962 38.6641 38.4249C38.5953 38.4536 38.5331 38.4958 38.481 38.549C38.3755 38.6554 38.3163 38.7992 38.3163 38.949C38.3163 39.0988 38.3755 39.2426 38.481 39.349L40.029 40.897L38.152 42.774C38.073 42.8535 38.0193 42.9546 37.9975 43.0645C37.9757 43.1744 37.9869 43.2883 38.0296 43.3919C38.0724 43.4955 38.1447 43.5842 38.2377 43.6468C38.3306 43.7095 38.4399 43.7433 38.552 43.744H38.554ZM44.109 29.222C45.0791 28.2511 46.3557 27.6466 47.7215 27.5114C49.0873 27.3762 50.4577 27.7187 51.5993 28.4805C52.7409 29.2423 53.5831 30.3764 53.9824 31.6895C54.3817 33.0026 54.3133 34.4135 53.7891 35.6819C53.2648 36.9503 52.317 37.9976 51.1072 38.6456C49.8973 39.2936 48.5002 39.5021 47.1539 39.2356C45.8076 38.9691 44.5953 38.244 43.7235 37.184C42.8518 36.1239 42.3745 34.7945 42.373 33.422C42.3703 32.6419 42.5224 31.8691 42.8204 31.1481C43.1184 30.4272 43.5564 29.7725 44.109 29.222Z" fill="url(#paint1_linear_3_8)"/>
<defs>
<linearGradient id="paint0_linear_3_8" x1="36.2595" y1="0.498001" x2="36.2595" y2="69.26" gradientUnits="userSpaceOnUse">
<stop stop-color="#FF6347"/>
<stop offset="1" stop-color="#012162"/>
</linearGradient>
<linearGradient id="paint1_linear_3_8" x1="46.6823" y1="26.3541" x2="49.7775" y2="40.7704" gradientUnits="userSpaceOnUse">
<stop stop-color="#FF6347"/>
<stop offset="1" stop-color="#012162"/>
</linearGradient>
</defs>
</svg>
